<?xml version="1.0" encoding="UTF-8"?>
<!DOCTYPE svg PUBLIC "-//W3C//DTD SVG 1.1//EN" "http://www.w3.org/Graphics/SVG/1.1/DTD/svg11.dtd">
<svg xmlns="http://www.w3.org/2000/svg" xmlns:xlink="http://www.w3.org/1999/xlink" version="1.1" width="421px" height="143px" viewBox="-0.5 -0.5 421 143" style="background-color: rgb(255, 255, 255);"><defs/><g><path d="M 10 62 L 10 10 L 150 10 L 150 62" fill="none" stroke="#000000" stroke-miterlimit="10" pointer-events="all"/><path d="M 10 62 L 150 62" fill="none" stroke="#000000" stroke-miterlimit="10" pointer-events="all"/><g fill="#000000" font-family="Helvetica" font-weight="bold" text-anchor="middle" font-size="12px"><text x="79.5" y="40.5">Class A</text></g><path d="M 270 62 L 270 10 L 410 10 L 410 62" fill="none" stroke="#000000" stroke-miterlimit="10" pointer-events="all"/><path d="M 270 62 L 410 62" fill="none" stroke="#000000" stroke-miterlimit="10" pointer-events="all"/><g fill="#000000" font-family="Helvetica" font-weight="bold" text-anchor="middle" font-size="12px"><text x="339.5" y="40.5">Class B</text></g><path d="M 210 26 L 240 36 L 210 46 L 180 36 Z" fill="#ffffff" stroke="#000000" stroke-miterlimit="10" pointer-events="all"/><path d="M 240 36 L 270 36" fill="none" stroke="#000000" stroke-miterlimit="10" pointer-events="stroke"/><path d="M 150 36 L 180 36" fill="none" stroke="#000000" stroke-miterlimit="10" pointer-events="stroke"/><path d="M 140 132 L 140 80 L 280 80 L 280 132" fill="none" stroke="#000000" stroke-miterlimit="10" pointer-events="all"/><path d="M 140 132 L 280 132" fill="none" stroke="#000000" stroke-miterlimit="10" pointer-events="all"/><g fill="#000000" font-family="Helvetica" font-weight="bold" text-anchor="middle" font-size="12px"><text x="209.5" y="110.5">Class C</text></g><path d="M 210 46 L 210 80" fill="none" stroke="#000000" stroke-miterlimit="10" pointer-events="stroke"/></g></svg>